REM DIRINDEX 1\2,1\3,1\4,1\5
REM DIRNAME folder01,folder02,folder03,folder04,folder05
TITLE ""
FILE "1800_106.mp3" MP3
  TRACK 01 AUDIO
    TITLE "2:cjc044_2965"
    INDEX 01 00:00:00
  TRACK 02 AUDIO
    TITLE "0:"
    INDEX 01 00:01:11
  TRACK 03 AUDIO
    TITLE "3:cjc044_2966"
    INDEX 01 00:01:62
  TRACK 04 AUDIO
    TITLE "0:"
    INDEX 01 00:03:00
  TRACK 05 AUDIO
    TITLE "4:cjc044_2967"
    INDEX 01 00:03:61
  TRACK 06 AUDIO
    TITLE "0:"
    INDEX 01 00:05:05
  TRACK 07 AUDIO
    TITLE "5:cjc044_2968"
    INDEX 01 00:05:54
  TRACK 08 AUDIO
    TITLE "0:"
    INDEX 01 00:08:26
  TRACK 09 AUDIO
    TITLE "2:cjc044_2969"
    INDEX 01 00:10:10
  TRACK 10 AUDIO
    TITLE "0:"
    INDEX 01 00:11:17
  TRACK 11 AUDIO
    TITLE "3:cjc044_2970"
    INDEX 01 00:12:03
  TRACK 12 AUDIO
    TITLE "0:"
    INDEX 01 00:13:18
  TRACK 13 AUDIO
    TITLE "4:cjc044_2971"
    INDEX 01 00:14:04
  TRACK 14 AUDIO
    TITLE "0:"
    INDEX 01 00:15:11
  TRACK 15 AUDIO
    TITLE "5:cjc044_2972"
    INDEX 01 00:15:66
  TRACK 16 AUDIO
    TITLE "0:"
    INDEX 01 00:19:24
  TRACK 17 AUDIO
    TITLE "2:cjc044_2973"
    INDEX 01 00:21:04
  TRACK 18 AUDIO
    TITLE "0:"
    INDEX 01 00:22:23
  TRACK 19 AUDIO
    TITLE "3:cjc044_2974"
    INDEX 01 00:23:04
  TRACK 20 AUDIO
    TITLE "0:"
    INDEX 01 00:24:25
  TRACK 21 AUDIO
    TITLE "4:cjc044_2975"
    INDEX 01 00:25:07
  TRACK 22 AUDIO
    TITLE "0:"
    INDEX 01 00:26:28
  TRACK 23 AUDIO
    TITLE "5:cjc044_2976"
    INDEX 01 00:27:06
  TRACK 24 AUDIO
    TITLE "0:"
    INDEX 01 00:30:03
  TRACK 25 AUDIO
    TITLE "2:cjc044_2977"
    INDEX 01 00:31:61
  TRACK 26 AUDIO
    TITLE "0:"
    INDEX 01 00:33:13
  TRACK 27 AUDIO
    TITLE "3:cjc044_2978"
    INDEX 01 00:33:62
  TRACK 28 AUDIO
    TITLE "0:"
    INDEX 01 00:34:61
  TRACK 29 AUDIO
    TITLE "4:cjc044_2979"
    INDEX 01 00:35:33
  TRACK 30 AUDIO
    TITLE "0:"
    INDEX 01 00:36:62
  TRACK 31 AUDIO
    TITLE "5:cjc044_2980"
    INDEX 01 00:37:40
  TRACK 32 AUDIO
    TITLE "0:"
    INDEX 01 00:40:52
  TRACK 33 AUDIO
    TITLE "2:cjc044_2981"
    INDEX 01 00:42:31
  TRACK 34 AUDIO
    TITLE "0:"
    INDEX 01 00:43:50
  TRACK 35 AUDIO
    TITLE "3:cjc044_2982"
    INDEX 01 00:44:32
  TRACK 36 AUDIO
    TITLE "0:"
    INDEX 01 00:45:59
  TRACK 37 AUDIO
    TITLE "4:cjc044_2983"
    INDEX 01 00:46:37
  TRACK 38 AUDIO
    TITLE "0:"
    INDEX 01 00:47:52
  TRACK 39 AUDIO
    TITLE "5:cjc044_2984"
    INDEX 01 00:48:40
  TRACK 40 AUDIO
    TITLE "0:"
    INDEX 01 00:52:36
  TRACK 41 AUDIO
    TITLE "2:cjc044_2985"
    INDEX 01 00:54:21
  TRACK 42 AUDIO
    TITLE "0:"
    INDEX 01 00:55:38
  TRACK 43 AUDIO
    TITLE "3:cjc044_2986"
    INDEX 01 00:56:24
  TRACK 44 AUDIO
    TITLE "0:"
    INDEX 01 00:58:32
  TRACK 45 AUDIO
    TITLE "4:cjc044_2987"
    INDEX 01 00:59:22
  TRACK 46 AUDIO
    TITLE "0:"
    INDEX 01 01:00:37
  TRACK 47 AUDIO
    TITLE "5:cjc044_2988"
    INDEX 01 01:01:15
  TRACK 48 AUDIO
    TITLE "0:"
    INDEX 01 01:04:13
  TRACK 49 AUDIO
    TITLE "2:cjc044_2989"
    INDEX 01 01:05:71
  TRACK 50 AUDIO
    TITLE "0:"
    INDEX 01 01:07:21
  TRACK 51 AUDIO
    TITLE "3:cjc044_2990"
    INDEX 01 01:07:74
  TRACK 52 AUDIO
    TITLE "0:"
    INDEX 01 01:09:24
  TRACK 53 AUDIO
    TITLE "4:cjc044_2991"
    INDEX 01 01:10:04
  TRACK 54 AUDIO
    TITLE "0:"
    INDEX 01 01:11:29
  TRACK 55 AUDIO
    TITLE "5:cjc044_2992"
    INDEX 01 01:12:05
  TRACK 56 AUDIO
    TITLE "0:"
    INDEX 01 01:14:27
  TRACK 57 AUDIO
    TITLE "2:cjc044_2993"
    INDEX 01 01:16:12
  TRACK 58 AUDIO
    TITLE "0:"
    INDEX 01 01:17:33
  TRACK 59 AUDIO
    TITLE "3:cjc044_2994"
    INDEX 01 01:18:19
  TRACK 60 AUDIO
    TITLE "0:"
    INDEX 01 01:19:38
  TRACK 61 AUDIO
    TITLE "4:cjc044_2995"
    INDEX 01 01:20:20
  TRACK 62 AUDIO
    TITLE "0:"
    INDEX 01 01:21:35
  TRACK 63 AUDIO
    TITLE "5:cjc044_2996"
    INDEX 01 01:22:07
  TRACK 64 AUDIO
    TITLE "0:"
    INDEX 01 01:25:29
